<svg width="15" height="24" viewBox="0 0 15 24" fill="none" xmlns="http://www.w3.org/2000/svg">
<path d="M14.25 1.37501C14.25 1.20925 14.1842 1.05027 14.0669 0.933064C13.9497 0.815854 13.7908 0.750006 13.625 0.750006H10.5C8.9264 0.671619 7.38575 1.21925 6.21465 2.27323C5.04356 3.32722 4.33723 4.80188 4.25 6.37501V9.75001H1.125C0.95924 9.75001 0.800269 9.81585 0.683058 9.93306C0.565848 10.0503 0.5 10.2092 0.5 10.375V13.625C0.5 13.7908 0.565848 13.9497 0.683058 14.0669C0.800269 14.1842 0.95924 14.25 1.125 14.25H4.25V22.625C4.25 22.7908 4.31585 22.9497 4.43306 23.0669C4.55027 23.1842 4.70924 23.25 4.875 23.25H8.625C8.79076 23.25 8.94973 23.1842 9.06694 23.0669C9.18415 22.9497 9.25 22.7908 9.25 22.625V14.25H12.525C12.664 14.252 12.7997 14.2076 12.9106 14.1238C13.0215 14.0401 13.1014 13.9217 13.1375 13.7875L14.0375 10.5375C14.0624 10.4452 14.0657 10.3483 14.0473 10.2545C14.0288 10.1607 13.9891 10.0723 13.9311 9.99622C13.8732 9.92015 13.7985 9.85839 13.713 9.8157C13.6274 9.77302 13.5331 9.75054 13.4375 9.75001H9.25V6.37501C9.28109 6.0656 9.42639 5.7789 9.65753 5.57087C9.88867 5.36285 10.189 5.24845 10.5 5.25001H13.625C13.7908 5.25001 13.9497 5.18416 14.0669 5.06695C14.1842 4.94974 14.25 4.79077 14.25 4.62501V1.37501Z" fill="white"/>
</svg>
