<svg width="20" height="26" viewBox="0 0 20 26" fill="none" xmlns="http://www.w3.org/2000/svg">
<path d="M8.3375 16.8712C7.705 20.2787 6.935 23.5462 4.65 25.2525C3.94625 20.1025 5.68625 16.2337 6.49375 12.1275C5.11625 9.73999 6.66 4.93374 9.565 6.11749C13.14 7.57499 6.46875 14.995 10.9475 15.9225C15.6238 16.89 17.5338 7.56874 14.6338 4.53624C10.4438 0.15999 2.4375 4.43749 3.4225 10.7037C3.6625 12.2362 5.19875 12.7012 4.03625 14.8162C1.355 14.2025 0.555 12.025 0.65875 9.12124C0.82375 4.37124 4.805 1.04374 8.7975 0.58374C13.8475 0.0012398 18.5863 2.49249 19.24 7.38374C19.9775 12.9037 16.9613 18.8837 11.5625 18.4525C10.0988 18.3362 9.48375 17.59 8.3375 16.8712Z" fill="white"/>
</svg>
